<?xml version="1.0" standalone="no"?>
<!DOCTYPE svg PUBLIC "-//W3C//DTD SVG 20010904//EN"
 "http://www.w3.org/TR/2001/REC-SVG-20010904/DTD/svg10.dtd">
<svg version="1.0" xmlns="http://www.w3.org/2000/svg"
 width="225.000000pt" height="225.000000pt" viewBox="0 0 225.000000 225.000000"
 preserveAspectRatio="xMidYMid meet">

<g transform="translate(0.000000,225.000000) scale(0.100000,-0.100000)"
fill="#000000" stroke="none">
<path d="M920 2051 c-359 -78 -642 -362 -721 -724 -27 -122 -23 -332 10 -452
68 -252 257 -482 496 -600 148 -74 221 -89 420 -89 199 0 272 15 420 89 238
118 426 345 497 600 19 68 22 105 22 250 0 199 -15 272 -89 420 -118 239 -348
429 -600 496 -115 31 -338 36 -455 10z m278 -389 c42 -27 47 -50 52 -232 l5
-175 182 -5 c174 -5 182 -6 207 -29 56 -52 56 -139 0 -192 -25 -23 -32 -24
-207 -29 l-182 -5 -5 -175 c-3 -110 -10 -183 -17 -196 -42 -74 -174 -74 -216
0 -7 13 -14 86 -17 196 l-5 175 -175 5 c-110 3 -183 10 -196 17 -74 42 -74
174 0 216 13 7 86 14 196 17 l175 5 5 175 c3 110 10 183 17 196 34 59 120 76
181 36z"/>
</g>
</svg>
