<?xml version="1.0" standalone="no"?>
<!DOCTYPE svg PUBLIC "-//W3C//DTD SVG 20010904//EN"
 "http://www.w3.org/TR/2001/REC-SVG-20010904/DTD/svg10.dtd">
<svg version="1.0" xmlns="http://www.w3.org/2000/svg"
 width="612.000000pt" height="612.000000pt" viewBox="0 0 612.000000 612.000000"
 preserveAspectRatio="xMidYMid meet">

<g transform="translate(0.000000,612.000000) scale(0.100000,-0.100000)"
fill="#000000" stroke="none">
<path d="M905 4880 c-23 -11 -48 -33 -58 -49 -23 -40 -22 -108 3 -149 35 -58
59 -62 355 -62 291 0 311 -3 339 -58 7 -15 35 -117 61 -227 25 -110 60 -254
75 -320 16 -66 52 -217 80 -335 28 -118 73 -307 100 -420 28 -113 99 -413 160
-668 61 -255 117 -477 126 -494 8 -16 14 -31 12 -32 -113 -68 -180 -156 -213
-283 -65 -251 102 -506 363 -555 186 -35 392 73 480 250 33 68 37 84 40 172 3
68 0 113 -11 149 l-15 51 509 0 c280 0 509 -1 509 -2 0 -2 -7 -25 -15 -52 -34
-110 -10 -270 55 -368 97 -146 280 -228 447 -200 234 39 397 245 380 481 -14
201 -156 364 -354 406 -56 12 -222 15 -951 15 -954 0 -908 -3 -960 53 -19 20
-71 178 -72 220 0 4 485 7 1078 7 l1077 0 36 24 c20 14 41 37 47 53 7 15 61
235 121 488 60 253 146 612 190 799 102 424 99 405 71 453 -41 74 96 67 -1569
73 l-1504 5 -39 163 c-21 90 -50 186 -64 214 -54 107 -158 186 -275 208 -29 6
-169 10 -313 10 -241 0 -264 -2 -301 -20z m1779 -907 c13 -129 37 -465 33
-469 -3 -3 -143 -5 -313 -5 -290 -1 -309 0 -316 18 -10 24 -118 480 -118 499
0 12 53 14 354 14 l353 0 7 -57z m990 49 c3 -6 -25 -408 -36 -500 l-3 -23
-314 0 c-172 0 -315 2 -317 4 -4 3 -44 478 -44 515 0 9 78 12 354 12 195 0
357 -3 360 -8z m996 -2 c0 -13 -120 -513 -124 -518 -6 -6 -618 -3 -624 3 -5 5
25 436 35 493 l5 32 354 0 c221 0 354 -4 354 -10z m-1905 -1067 l20 -263 -251
0 -252 0 -27 113 c-15 61 -42 176 -61 255 -19 79 -34 147 -34 153 0 6 108 8
293 7 l292 -3 20 -262z m845 236 c0 -40 -28 -402 -35 -456 l-6 -43 -253 0
-252 0 -20 258 c-12 141 -19 260 -17 265 2 4 134 7 294 7 l289 0 0 -31z m865
4 c-6 -25 -28 -118 -97 -405 l-23 -98 -253 0 -253 0 5 53 c8 64 36 428 36 456
0 21 4 21 296 21 l296 0 -7 -27z m-2017 -1364 c99 -49 129 -177 60 -264 -26
-34 -91 -64 -137 -65 -55 0 -118 36 -146 84 -88 151 67 320 223 245z m1839 10
c34 -13 80 -55 99 -91 39 -74 2 -184 -75 -225 -51 -27 -97 -29 -148 -8 -73 31
-106 81 -106 162 0 117 122 203 230 162z"/>
</g>
</svg>
