<?xml version="1.0" standalone="no"?>
<!DOCTYPE svg PUBLIC "-//W3C//DTD SVG 20010904//EN"
 "http://www.w3.org/TR/2001/REC-SVG-20010904/DTD/svg10.dtd">
<svg version="1.0" xmlns="http://www.w3.org/2000/svg"
 width="272.000000pt" height="186.000000pt" viewBox="0 0 272.000000 186.000000"
 preserveAspectRatio="xMidYMid meet">

<g transform="translate(0.000000,186.000000) scale(0.100000,-0.100000)"
fill="#000000" stroke="none">
<path d="M1040 1705 l0 -115 69 0 70 0 3 43 3 42 155 -1 c133 -1 163 -4 211
-23 82 -31 146 -77 195 -140 67 -86 88 -147 88 -266 1 -95 -1 -104 -35 -175
-55 -116 -137 -190 -253 -230 -49 -17 -84 -20 -213 -20 l-153 0 0 30 0 30 -70
0 -70 0 0 -100 0 -100 228 0 c247 0 297 7 395 56 238 120 363 384 302 643 -37
156 -154 304 -297 374 -107 53 -192 66 -430 67 l-198 0 0 -115z"/>
<path d="M983 1545 c-97 -27 -175 -93 -217 -184 -32 -70 -29 -188 6 -263 31
-66 91 -128 156 -160 43 -21 63 -23 217 -26 206 -4 253 9 335 88 42 40 50 55
50 84 0 43 -29 76 -65 76 -17 0 -42 -15 -71 -45 -26 -25 -62 -50 -83 -56 -21
-6 -92 -9 -172 -7 -125 3 -138 5 -173 28 -22 15 -47 45 -62 77 -32 65 -27 122
15 180 42 58 87 76 210 81 143 6 199 -7 258 -64 35 -33 55 -44 79 -44 39 0 64
27 64 70 0 28 -10 43 -53 85 -76 74 -119 87 -297 91 -106 3 -159 0 -197 -11z"/>
<path d="M50 286 c0 -137 0 -137 23 -134 21 3 22 8 25 112 l3 108 57 -7 c67
-8 96 -24 122 -68 24 -38 25 -75 6 -122 -22 -51 -58 -69 -150 -75 -75 -5 -81
-7 -84 -27 -3 -22 -1 -23 77 -23 118 0 165 24 202 105 33 71 22 144 -29 198
-42 45 -79 59 -169 65 l-83 5 0 -137z"/>
<path d="M1822 408 c-18 -18 -17 -341 1 -356 32 -27 38 1 35 183 -3 176 -8
201 -36 173z"/>
<path d="M2637 413 c-4 -3 -7 -33 -7 -66 0 -52 -2 -58 -17 -52 -98 39 -193
-16 -193 -112 0 -55 22 -98 60 -118 34 -18 93 -20 122 -4 15 8 22 8 28 -1 4
-7 16 -10 26 -8 18 3 19 16 22 172 2 116 -1 173 -9 182 -13 15 -22 18 -32 7z
m-36 -182 c33 -33 35 -50 14 -90 -16 -32 -33 -41 -76 -41 -67 0 -97 97 -43
139 37 29 70 26 105 -8z"/>
<path d="M464 300 c-12 -4 -31 -21 -43 -36 -18 -23 -21 -40 -21 -120 0 -87 1
-94 20 -94 18 0 20 7 20 79 0 96 19 128 78 133 29 2 37 7 37 23 0 16 -7 20
-35 22 -19 1 -45 -2 -56 -7z"/>
<path d="M654 300 c-41 -16 -74 -68 -74 -116 0 -86 47 -134 133 -134 46 0 97
29 97 55 0 25 -17 25 -59 2 l-41 -22 -37 20 c-65 35 -54 44 59 47 l103 3 3 27
c10 83 -98 153 -184 118z m113 -62 c13 -12 23 -25 23 -30 0 -4 -36 -8 -80 -8
-44 0 -80 3 -80 7 0 4 10 17 22 30 28 30 83 31 115 1z"/>
<path d="M954 300 c-31 -12 -72 -66 -79 -104 -9 -45 16 -101 57 -126 35 -21
97 -26 128 -10 13 7 21 7 25 0 3 -5 15 -10 26 -10 17 0 19 7 19 83 0 65 -4 89
-20 115 -31 50 -102 74 -156 52z m100 -61 c20 -16 26 -29 26 -58 0 -76 -89
-113 -137 -56 -66 76 32 176 111 114z"/>
<path d="M1221 296 c-40 -22 -50 -54 -51 -154 0 -91 1 -93 23 -90 21 3 22 8
25 92 3 95 11 116 46 116 44 0 51 -15 56 -112 5 -85 7 -93 25 -93 18 0 20 8
25 93 5 98 12 112 57 112 38 0 53 -36 53 -127 0 -76 2 -83 20 -83 19 0 20 7
20 99 0 84 -3 102 -20 124 -28 35 -84 46 -123 24 -25 -15 -31 -15 -57 -2 -35
18 -67 19 -99 1z"/>
<path d="M1630 297 c-13 -7 -35 -28 -48 -47 -49 -72 -9 -177 78 -200 42 -11
89 -1 104 23 17 27 -6 42 -44 29 -84 -30 -146 69 -83 133 26 25 32 27 80 21
48 -6 53 -4 53 14 0 10 -9 24 -19 30 -27 14 -91 12 -121 -3z"/>
<path d="M1964 291 c-46 -28 -64 -60 -64 -109 0 -81 48 -132 125 -132 124 0
175 142 82 229 -36 33 -102 38 -143 12z m117 -60 c33 -33 35 -50 14 -90 -16
-32 -33 -41 -76 -41 -67 0 -97 97 -43 139 37 29 70 26 105 -8z"/>
<path d="M2190 211 c0 -92 2 -102 26 -130 21 -26 33 -31 68 -31 82 0 108 43
104 171 -3 76 -5 84 -23 84 -18 0 -20 -8 -25 -90 -3 -50 -9 -96 -13 -102 -5
-7 -21 -13 -37 -13 -44 0 -62 34 -60 117 2 94 2 93 -20 93 -19 0 -20 -7 -20
-99z"/>
</g>
</svg>
