<?xml version="1.0" standalone="no"?>
<!DOCTYPE svg PUBLIC "-//W3C//DTD SVG 20010904//EN"
 "http://www.w3.org/TR/2001/REC-SVG-20010904/DTD/svg10.dtd">
<svg version="1.0" xmlns="http://www.w3.org/2000/svg"
 width="124.000000pt" height="124.000000pt" viewBox="0 0 124.000000 124.000000"
 preserveAspectRatio="xMidYMid meet">

<g transform="translate(0.000000,124.000000) scale(0.100000,-0.100000)"
fill="#FF0000" stroke="none">
<path d="M448 1197 c-43 -38 -53 -57 -63 -114 l-7 -43 -108 0 c-117 0 -120 -1
-120 -61 0 -24 -4 -29 -25 -29 -23 0 -25 -4 -25 -44 l0 -45 47 -3 48 -3 5
-388 5 -389 37 -34 38 -34 336 0 c320 0 338 1 369 20 62 39 65 58 65 465 l0
365 45 0 45 0 0 44 c0 38 -3 45 -22 48 -15 2 -22 11 -25 33 -7 56 -5 55 -121
55 l-109 0 -7 50 c-4 31 -16 60 -32 80 -45 53 -70 60 -211 60 l-128 0 -37 -33z
m292 -77 c11 -11 20 -33 20 -50 l0 -30 -140 0 c-135 0 -140 1 -140 21 0 23 18
60 34 71 6 4 55 8 109 8 84 0 100 -3 117 -20z m218 -630 c-2 -286 -6 -372 -16
-382 -10 -10 -81 -13 -317 -13 -258 0 -307 2 -319 15 -13 13 -16 68 -16 375 0
198 0 363 0 368 0 4 151 7 336 7 l335 0 -3 -370z"/>
<path d="M390 475 l0 -285 45 0 45 0 0 285 0 285 -45 0 -45 0 0 -285z"/>
<path d="M580 474 l0 -285 43 3 42 3 3 283 2 282 -45 0 -45 0 0 -286z"/>
<path d="M770 474 l0 -285 43 3 42 3 3 283 2 282 -45 0 -45 0 0 -286z"/>
</g>
</svg>
