<?xml version="1.0" standalone="no"?>
<!DOCTYPE svg PUBLIC "-//W3C//DTD SVG 20010904//EN"
 "http://www.w3.org/TR/2001/REC-SVG-20010904/DTD/svg10.dtd">
<svg version="1.0" xmlns="http://www.w3.org/2000/svg"
 width="360.000000pt" height="360.000000pt" viewBox="0 0 360.000000 360.000000"
 preserveAspectRatio="xMidYMid meet">

<g transform="translate(0.000000,360.000000) scale(0.100000,-0.100000)"
fill="#000000" stroke="none">
<path d="M1551 3163 c-41 -8 -99 -51 -128 -95 -26 -38 -28 -52 -33 -161 l-5
-119 -47 -19 -47 -18 -58 60 c-98 103 -169 132 -265 109 -47 -12 -65 -25 -161
-119 -132 -129 -150 -155 -151 -229 -1 -88 9 -110 96 -198 l81 -83 -17 -35
c-9 -19 -16 -38 -16 -44 0 -5 -49 -11 -112 -14 -129 -5 -175 -22 -226 -84 -46
-55 -55 -103 -50 -271 3 -142 5 -150 32 -190 15 -23 46 -54 68 -70 39 -26 48
-28 163 -31 l121 -4 17 -47 16 -47 -68 -70 c-88 -91 -105 -123 -105 -200 1
-81 26 -124 147 -241 101 -100 141 -123 210 -123 87 0 107 10 194 93 l82 79
51 -18 50 -18 0 -109 c0 -99 2 -114 26 -158 15 -26 45 -61 67 -76 l40 -28 188
0 187 0 44 30 c71 50 91 99 96 231 l4 112 45 17 44 17 74 -71 c40 -39 89 -78
109 -86 48 -20 132 -19 181 4 61 28 250 226 264 276 28 100 9 156 -85 254 -41
43 -74 83 -74 89 0 7 7 30 16 52 l16 40 107 0 c123 0 167 15 218 73 48 55 55
92 51 268 -3 153 -4 156 -33 204 -46 75 -101 99 -237 104 l-109 3 -14 35 c-8
20 -15 41 -15 48 0 7 27 39 60 71 103 99 134 196 91 290 -19 43 -210 238 -256
261 -38 20 -106 26 -153 13 -33 -8 -65 -31 -127 -91 l-83 -79 -46 19 -46 20 0
86 c0 124 -14 170 -69 225 -28 27 -62 50 -87 58 -39 11 -279 15 -333 5z m271
-358 c4 -174 1 -170 138 -221 52 -19 109 -43 128 -54 18 -11 49 -20 69 -20 32
0 47 11 140 102 l104 102 77 -77 77 -77 -98 -98 c-121 -121 -125 -136 -74
-238 19 -38 42 -92 50 -121 34 -115 49 -123 229 -123 l133 0 -2 -107 -2 -108
-145 -5 c-139 -5 -147 -6 -169 -30 -13 -14 -36 -61 -51 -105 -15 -44 -39 -99
-52 -122 -46 -79 -33 -112 90 -232 47 -46 86 -85 86 -87 0 -3 -40 -43 -119
-118 l-31 -30 -99 97 c-120 119 -130 121 -255 62 -41 -19 -77 -35 -80 -35 -3
0 -30 -9 -61 -21 -78 -29 -85 -46 -85 -214 l0 -135 -110 0 -110 0 0 144 c0
171 -6 185 -97 211 -31 9 -89 33 -127 52 -45 23 -85 36 -109 36 -36 0 -47 -8
-136 -97 -53 -53 -101 -96 -106 -96 -5 0 -42 32 -82 72 l-72 72 99 102 c93 95
100 106 100 142 0 24 -10 57 -25 83 -14 24 -37 80 -51 123 -15 44 -37 90 -50
103 -22 22 -30 23 -169 23 l-145 0 0 109 0 110 144 3 c136 3 146 4 170 27 14
13 35 53 46 89 12 36 34 91 51 123 50 100 45 115 -72 235 l-102 103 78 76 77
76 104 -101 c120 -117 130 -120 240 -66 38 19 95 42 127 52 37 12 68 29 83 47
23 27 24 35 24 168 l0 139 109 0 110 0 3 -145z"/>
<path d="M1576 2395 c-234 -65 -406 -285 -406 -520 1 -372 382 -640 726 -510
378 142 477 620 187 896 -65 63 -153 111 -240 134 -70 18 -200 18 -267 0z
m189 -206 c114 -21 195 -83 243 -188 32 -68 35 -160 8 -238 -22 -66 -93 -146
-160 -181 -45 -24 -62 -27 -146 -27 -79 1 -102 5 -138 23 -62 33 -114 83 -148
144 -26 48 -29 62 -29 148 0 83 3 101 27 145 25 49 94 121 136 144 20 11 116
39 138 40 6 1 37 -4 69 -10z"/>
</g>
</svg>
