<?xml version="1.0" standalone="no"?>
<!DOCTYPE svg PUBLIC "-//W3C//DTD SVG 20010904//EN"
 "http://www.w3.org/TR/2001/REC-SVG-20010904/DTD/svg10.dtd">
<svg version="1.0" xmlns="http://www.w3.org/2000/svg"
 width="1500.000000pt" height="1600.000000pt" viewBox="0 0 1500.000000 1600.000000"
 preserveAspectRatio="xMidYMid meet">

<g transform="translate(0.000000,1600.000000) scale(0.100000,-0.100000)"
fill="#000000" stroke="none">
<path d="M7401 12305 c-24 -19 -54 -46 -67 -60 -13 -14 -26 -25 -29 -25 -3 0
-22 -17 -43 -37 -31 -32 -126 -118 -255 -233 -16 -14 -41 -37 -55 -51 -15 -14
-71 -64 -124 -111 -102 -91 -163 -147 -206 -189 -15 -14 -72 -65 -127 -114
-55 -49 -112 -100 -126 -114 -24 -24 -69 -65 -243 -220 -34 -30 -71 -65 -83
-78 -12 -13 -25 -23 -28 -23 -3 0 -16 -10 -28 -23 -12 -13 -49 -48 -83 -78
-174 -155 -219 -196 -243 -220 -14 -14 -69 -63 -121 -110 -90 -79 -147 -132
-208 -189 -15 -14 -72 -65 -127 -114 -55 -49 -110 -100 -122 -113 -12 -13 -25
-23 -28 -23 -3 0 -22 -17 -43 -38 -20 -20 -75 -71 -122 -112 -47 -41 -97 -86
-112 -100 -64 -60 -119 -110 -205 -187 -96 -86 -157 -141 -201 -184 -15 -14
-72 -65 -127 -114 -55 -49 -112 -100 -126 -114 -15 -14 -62 -57 -105 -96 -166
-148 -200 -179 -221 -202 -12 -13 -24 -23 -26 -23 -5 0 -99 -86 -209 -190 -89
-84 -89 -189 1 -257 60 -46 119 -46 184 0 42 30 154 128 226 198 14 14 71 65
126 114 55 49 112 100 126 114 15 14 62 58 105 96 166 148 200 179 221 202 12
13 25 23 28 23 3 0 22 17 43 38 20 20 75 71 122 112 105 93 154 138 188 171
15 14 71 64 124 111 100 90 161 145 206 189 15 14 72 65 127 114 55 49 112
100 126 114 15 14 37 35 50 46 52 44 255 230 276 252 12 13 25 23 28 23 3 0
16 10 28 23 21 23 55 54 221 202 43 39 90 82 105 96 14 14 71 65 126 114 55
49 112 100 126 114 15 14 62 58 105 96 166 148 200 179 221 202 12 13 25 23
28 23 3 0 16 10 28 23 21 23 227 210 276 252 13 11 38 34 55 50 17 17 74 69
126 115 52 47 110 100 130 118 48 46 66 55 82 39 7 -6 51 -46 98 -87 47 -41
102 -92 122 -112 21 -21 40 -38 43 -38 3 0 16 -10 28 -23 12 -13 67 -64 122
-113 127 -113 170 -153 203 -185 15 -14 72 -65 127 -114 55 -49 112 -100 126
-114 24 -24 69 -65 243 -220 34 -30 71 -65 83 -78 12 -13 25 -23 28 -23 3 0
22 -17 43 -38 20 -20 75 -71 122 -112 47 -41 102 -92 122 -112 21 -21 40 -38
43 -38 3 0 16 -10 28 -23 12 -13 67 -63 122 -113 119 -106 168 -150 203 -185
15 -14 72 -65 127 -114 55 -49 112 -100 126 -114 15 -14 62 -57 105 -96 166
-148 200 -179 221 -202 12 -13 25 -23 28 -23 3 0 16 -10 28 -23 12 -13 49 -48
83 -78 174 -155 219 -196 243 -220 14 -14 69 -63 121 -110 90 -79 147 -132
208 -189 15 -14 72 -65 127 -114 55 -49 110 -100 122 -113 12 -13 25 -23 28
-23 3 0 16 -10 28 -23 12 -13 51 -50 87 -82 36 -32 84 -76 108 -97 55 -51 88
-68 134 -68 65 0 113 31 151 97 21 38 22 72 2 120 -17 40 -35 59 -175 183 -90
80 -148 133 -208 190 -15 14 -72 65 -127 114 -55 49 -110 100 -122 113 -12 13
-25 23 -28 23 -3 0 -16 10 -28 23 -21 23 -55 54 -221 202 -43 39 -90 82 -105
96 -14 14 -71 65 -126 114 -55 49 -112 100 -126 114 -24 24 -69 65 -243 220
-34 30 -71 65 -83 78 -12 13 -25 23 -28 23 -3 0 -16 10 -28 23 -12 13 -74 70
-137 127 -63 57 -125 114 -137 127 -12 13 -25 23 -28 23 -3 0 -16 10 -28 23
-12 13 -49 48 -83 78 -174 155 -219 196 -243 220 -14 14 -71 65 -126 114 -55
49 -112 100 -126 114 -15 14 -62 58 -105 96 -166 148 -200 179 -221 202 -12
13 -25 23 -28 23 -3 0 -16 10 -28 23 -21 23 -55 54 -221 202 -43 39 -90 81
-105 95 -25 25 -60 56 -225 205 -43 39 -90 81 -105 96 -14 14 -62 57 -106 95
-44 39 -99 89 -123 112 -24 23 -48 42 -53 42 -5 0 -9 4 -9 9 0 22 -68 51 -121
51 -46 0 -60 -5 -98 -35z"/>
<path d="M4740 12193 c-14 -3 -38 -17 -53 -31 -59 -56 -57 -26 -57 -865 l0
-770 25 -42 c33 -57 81 -79 152 -72 60 6 99 31 125 80 16 29 17 90 18 710 l0
677 398 -2 397 -3 5 -251 c5 -273 3 -262 65 -316 42 -36 144 -34 187 4 59 51
58 42 58 428 0 391 2 379 -65 432 l-29 23 -601 1 c-330 1 -611 -1 -625 -3z"/>
<path d="M4526 8672 c-3 -5 8 -22 25 -38 23 -22 33 -26 46 -18 28 18 25 31
-11 48 -38 18 -52 20 -60 8z"/>
<path d="M10414 8661 c-23 -10 -54 -36 -70 -57 l-29 -37 0 -1631 0 -1631 24
-24 c23 -23 25 -24 55 -7 17 9 39 23 50 31 18 13 18 15 -3 44 -18 24 -20 35
-11 51 15 28 27 25 45 -9 21 -41 30 -45 61 -24 25 16 27 16 40 -2 12 -16 11
-20 -16 -37 -17 -10 -30 -20 -30 -23 0 -11 84 -125 92 -125 5 0 7 764 6 1698
l-3 1697 -23 33 c-23 32 -95 72 -129 72 -10 0 -37 -9 -59 -19z"/>
<path d="M4426 8625 c-39 -38 -43 -45 -22 -45 7 0 16 9 19 20 8 33 34 34 69 5
40 -33 62 -64 54 -72 -4 -4 -23 10 -44 30 -21 20 -46 37 -55 37 -28 0 -19 -34
18 -70 19 -19 35 -38 35 -42 0 -18 -28 -6 -60 27 -19 19 -40 35 -47 35 -24 0
-13 -46 17 -75 29 -28 39 -55 21 -55 -5 0 -18 12 -30 28 l-20 27 -1 -1353 c0
-865 3 -1351 9 -1347 6 3 15 -4 21 -15 10 -18 8 -22 -9 -27 -18 -4 -21 -13
-21 -53 l0 -48 37 19 c64 33 111 21 128 -31 14 -44 -60 -136 -122 -155 -20 -5
-23 -3 -23 19 0 16 6 26 15 26 26 0 86 61 83 84 -4 28 -33 32 -79 9 l-39 -18
0 -339 0 -339 26 -34 c51 -67 -36 -63 1233 -63 1143 0 1150 0 1185 21 19 11
44 36 55 55 21 35 21 43 21 1065 l0 1029 600 0 600 0 0 -1020 c0 -1002 0
-1022 20 -1060 11 -22 37 -51 57 -65 l38 -25 805 0 c631 0 809 3 819 13 11 10
14 10 18 0 3 -8 22 -13 46 -13 l42 0 -62 67 c-65 70 -74 89 -47 100 11 4 27
-6 50 -33 l34 -39 21 28 c30 40 67 56 105 46 31 -9 164 -138 164 -159 0 -6 60
-10 155 -10 129 0 160 3 183 17 70 44 82 74 82 197 0 84 -2 94 -19 99 -17 4
-103 111 -115 141 -4 12 -97 -33 -103 -50 -2 -5 19 -37 45 -69 44 -55 52 -60
84 -58 26 2 38 -3 43 -15 9 -24 -23 -43 -70 -40 -37 3 -43 8 -90 75 -27 40
-57 72 -65 72 -9 1 -23 -15 -32 -34 -8 -19 -13 -35 -9 -35 4 0 30 -32 59 -70
60 -80 60 -92 6 -139 -41 -36 -77 -47 -113 -35 -28 10 -163 172 -158 189 10
29 40 10 101 -65 75 -90 103 -101 146 -55 l23 24 -59 78 c-33 43 -63 81 -69
85 -5 4 -414 8 -907 8 l-898 0 0 1016 c0 996 0 1016 -20 1059 -12 26 -36 55
-57 70 l-38 25 -817 0 c-712 0 -818 -2 -832 -15 -8 -8 -18 -15 -23 -15 -12 -1
-38 -41 -51 -79 -9 -25 -12 -301 -12 -1048 l0 -1013 -942 2 -943 3 -3 278 c-2
272 -3 277 -22 267 -33 -18 -69 0 -128 61 -41 44 -61 58 -74 53 -27 -8 -52 14
-37 33 9 11 7 19 -10 36 -11 13 -21 36 -21 52 l0 29 34 -33 c34 -33 43 -34 78
-9 13 9 20 9 32 -2 15 -12 15 -15 -5 -36 l-22 -23 38 -47 c46 -56 76 -71 109
-56 21 9 25 19 28 72 3 66 -2 79 -22 55 -11 -14 -15 -14 -32 2 -25 23 -48 66
-48 92 0 11 12 33 26 50 21 25 29 29 45 21 24 -14 24 -26 -1 -47 -27 -23 -25
-45 5 -73 l25 -24 -2 1345 c-3 1285 -4 1346 -21 1373 l-19 28 -22 -21 c-32
-31 -64 -26 -102 14 -18 19 -39 35 -47 35 -9 0 -31 -16 -51 -35z"/>
<path d="M10000 4922 c-43 -21 -48 -43 -18 -81 22 -29 27 -30 104 -30 l81 -1
-62 65 c-35 36 -64 65 -66 65 -2 0 -20 -8 -39 -18z"/>
<path d="M0 500 l0 -500 7500 0 7500 0 0 500 0 500 -7500 0 -7500 0 0 -500z
m860 144 l0 -56 34 6 c41 8 92 -11 121 -44 17 -19 21 -39 24 -141 l3 -119 -36
0 -36 0 0 104 c0 121 -9 139 -69 134 l-36 -3 -3 -117 -3 -118 -34 0 -35 0 0
205 0 205 35 0 35 0 0 -56z m630 -54 l49 0 3 37 c2 30 9 41 36 56 l32 19 0
-56 0 -56 41 0 c39 0 40 -1 37 -32 -3 -30 -6 -33 -40 -36 l-38 -3 0 -66 c0
-71 16 -103 52 -103 13 0 18 -8 18 -30 0 -28 -3 -30 -36 -30 -75 0 -104 44
-104 160 l0 70 -50 0 -50 0 0 -69 c0 -74 14 -101 51 -101 14 0 19 -7 19 -30 0
-28 -2 -30 -39 -30 -28 0 -49 7 -68 24 -26 23 -28 30 -31 115 -3 70 -7 91 -18
91 -9 0 -14 12 -14 35 0 24 5 35 15 35 11 0 15 11 15 38 0 33 4 40 33 54 l32
15 3 -53 3 -54 49 0z m1010 55 l0 -55 35 0 c33 0 35 -2 35 -35 0 -33 -2 -35
-35 -35 l-35 0 0 -76 c0 -75 0 -76 30 -87 23 -9 30 -17 30 -39 0 -26 -3 -28
-37 -28 -71 1 -93 37 -93 148 0 71 -2 80 -20 85 -15 4 -20 14 -20 36 0 24 4
31 20 31 16 0 20 7 20 38 0 30 5 40 28 54 15 9 30 17 35 17 4 1 7 -24 7 -54z
m710 -56 l0 -111 47 56 c45 53 50 56 92 56 l45 0 -35 -37 c-19 -21 -47 -52
-62 -69 l-28 -31 61 -78 c33 -43 60 -79 60 -81 0 -2 -17 -4 -39 -4 -35 0 -42
5 -80 55 -23 31 -46 53 -52 50 -5 -4 -9 -28 -9 -56 l0 -49 -35 0 -35 0 0 205
0 205 35 0 35 0 0 -111z m9720 31 c0 -33 -4 -60 -10 -60 -6 0 -10 27 -10 60 0
33 4 60 10 60 6 0 10 -27 10 -60z m61 13 l15 -48 15 44 c22 68 39 65 39 -8 0
-65 -19 -87 -21 -23 l-1 37 -12 -35 c-7 -19 -16 -35 -21 -35 -5 0 -14 16 -21
35 l-12 35 -1 -37 c-1 -59 -21 -44 -21 15 0 83 19 91 41 20z m153 -17 c19 -58
19 -56 6 -56 -5 0 -10 7 -10 15 0 9 -9 15 -25 15 -16 0 -25 -6 -25 -15 0 -8
-4 -15 -10 -15 -5 0 -10 2 -10 4 0 3 21 65 35 105 8 20 20 4 39 -53z m90 58
c28 -11 17 -24 -15 -17 l-30 6 3 -44 c2 -36 7 -44 23 -44 25 0 32 32 8 38 -14
4 -13 5 5 6 20 1 23 -3 20 -26 -2 -20 -9 -29 -26 -31 -34 -5 -52 15 -52 57 0
52 22 71 64 55z m101 -4 c-3 -5 -15 -10 -26 -10 -10 0 -19 -7 -19 -15 0 -8 9
-15 20 -15 11 0 20 -4 20 -10 0 -5 -9 -10 -20 -10 -33 0 -26 -38 8 -43 22 -3
20 -4 -10 -6 l-38 -1 0 53 c0 30 3 57 7 60 11 11 65 8 58 -3z m62 -82 c-2 -18
-4 -4 -4 32 0 36 2 50 4 33 2 -18 2 -48 0 -65z m97 76 c19 -18 21 -75 4 -92
-7 -7 -25 -12 -40 -12 -28 0 -28 1 -28 60 0 57 1 60 24 60 14 0 32 -7 40 -16z
m256 5 c0 -16 -42 -110 -47 -105 -3 2 2 17 10 33 32 62 31 71 -5 76 l-33 4 38
1 c20 1 37 -3 37 -9z m179 -20 c19 -35 -3 -83 -39 -86 l-25 -2 25 7 c14 5 26
16 28 25 2 12 -1 15 -12 11 -18 -7 -46 12 -46 32 0 17 30 46 44 41 6 -2 17
-15 25 -28z m85 15 c33 -32 6 -105 -37 -103 l-22 2 23 4 c12 2 27 14 33 25 10
18 8 19 -13 13 l-23 -8 25 21 c24 20 24 22 8 38 -14 14 -20 15 -33 4 -9 -8
-13 -21 -10 -34 5 -17 4 -18 -4 -6 -6 8 -11 18 -11 22 0 9 30 38 40 38 5 0 16
-7 24 -16z m85 7 c8 -5 12 -18 9 -29 -3 -10 -1 -27 4 -36 13 -23 -8 -46 -41
-45 -26 1 -26 1 3 8 37 8 45 28 14 40 -20 8 -21 10 -5 16 9 4 17 13 17 21 0 7
-8 18 -17 23 -10 6 -13 10 -8 11 6 0 16 -4 24 -9z m95 -7 c32 -31 13 -104 -27
-104 -21 0 -21 1 3 13 17 9 25 22 27 44 3 32 -18 60 -37 48 -16 -10 -12 -43 8
-55 16 -11 16 -11 -1 -6 -10 3 -21 6 -23 6 -9 0 -3 47 8 58 16 16 23 15 42 -4z
m111 -64 c8 0 27 19 42 42 l28 42 3 -39 c2 -22 9 -43 15 -47 9 -6 9 -8 0 -8
-7 0 -14 -8 -14 -17 -1 -17 -2 -17 -6 0 -3 12 -15 17 -44 17 -30 0 -39 -4 -40
-17 -1 -17 -2 -17 -6 0 -3 11 -14 17 -34 17 l-30 0 33 48 33 47 3 -42 c2 -29
8 -43 17 -43z m148 73 c-14 -3 -23 -12 -23 -23 0 -12 8 -20 23 -22 17 -2 22
-10 22 -33 0 -26 -4 -30 -30 -31 -30 -2 -30 -2 -2 3 22 3 28 9 25 26 -2 14
-11 23 -25 25 -16 2 -23 10 -23 26 0 28 8 36 34 35 19 -2 19 -2 -1 -6z m-825
-60 l-2 -58 -3 53 c-3 35 -8 50 -15 46 -7 -4 -8 -2 -4 4 16 27 26 9 24 -45z
m190 0 l-2 -58 -3 52 c-3 44 -7 51 -21 47 -14 -5 -15 -4 -2 5 26 19 30 12 28
-46z m-281 15 c-3 -8 -6 -5 -6 6 -1 11 2 17 5 13 3 -3 4 -12 1 -19z m-12795
-49 c14 -8 15 -14 7 -39 -9 -26 -13 -28 -35 -19 -38 14 -80 11 -95 -7 -11 -14
-11 -18 4 -29 10 -7 35 -15 57 -19 96 -15 119 -117 38 -166 -37 -22 -107 -26
-157 -9 -33 12 -34 13 -22 44 7 17 17 20 82 20 67 0 74 2 74 20 0 19 -16 27
-76 40 -48 9 -74 39 -74 83 0 47 24 78 69 91 33 10 100 5 128 -10z m1131 10
c51 -14 77 -57 77 -126 l0 -53 -85 0 c-76 0 -85 -2 -85 -19 0 -39 34 -48 105
-27 11 3 29 -1 40 -9 19 -15 19 -16 -8 -43 -24 -23 -35 -27 -88 -27 -56 0 -63
3 -90 33 -27 31 -29 37 -29 121 0 100 16 133 73 150 43 12 46 12 90 0z m265
-26 c3 -31 1 -33 -27 -33 -49 0 -61 -29 -61 -142 l0 -98 -30 0 -30 0 0 123 c0
115 2 125 23 145 28 27 65 42 97 39 20 -2 26 -8 28 -34z m182 26 c54 -11 56
-15 39 -53 -10 -21 -15 -23 -36 -15 -37 14 -79 11 -94 -7 -11 -14 -11 -18 4
-29 10 -7 35 -15 56 -19 52 -8 80 -33 87 -77 12 -74 -74 -125 -178 -105 -52
10 -61 19 -48 48 11 23 16 24 83 24 60 -1 72 2 75 16 4 19 -12 28 -86 48 -34
9 -46 18 -60 46 -16 34 -15 37 3 72 14 25 31 41 55 49 44 15 40 15 100 2z
m712 1 c33 -10 78 -50 78 -70 0 -5 -13 -13 -29 -18 -23 -8 -31 -7 -45 9 -19
23 -59 25 -80 3 -19 -19 -22 -134 -4 -152 17 -17 68 -15 89 3 20 19 69 10 69
-12 0 -43 -85 -82 -153 -69 -58 11 -81 46 -85 131 -6 111 18 161 83 178 32 8
38 7 77 -3z m446 -16 c2 -11 -4 -26 -12 -33 -31 -26 -71 14 -45 45 17 21 53
14 57 -12z m-2338 -99 c0 -105 2 -115 20 -125 12 -6 33 -10 48 -8 l27 3 3 123
3 122 34 0 35 0 0 -143 0 -144 -39 -11 c-82 -25 -162 -8 -186 39 -11 20 -15
61 -15 144 l0 115 35 0 35 0 0 -115z m1610 81 c0 -34 -1 -35 -42 -38 -43 -3
-43 -3 -46 -45 -3 -42 -4 -43 -39 -43 l-35 0 4 57 c6 75 36 103 109 103 l49 0
0 -34z m95 -163 c-1 -75 -29 -103 -102 -103 l-54 0 3 33 c3 29 6 32 43 37 39
5 40 6 43 48 3 42 4 43 35 40 32 -3 32 -4 32 -55z m10647 -25 c-3 -61 -12 -60
-12 2 0 29 3 50 7 47 3 -4 6 -26 5 -49z m671 9 c14 11 17 12 10 2 -10 -12 -9
-20 4 -40 16 -24 16 -24 -3 -6 -12 9 -23 17 -27 17 -3 0 -8 -8 -10 -17 -3 -10
-4 7 -4 37 0 33 2 42 4 22 4 -34 5 -34 26 -15z m-501 -8 c-3 -20 0 -34 9 -40
11 -7 11 -9 -2 -9 -12 0 -18 11 -21 41 -4 41 -1 52 12 44 4 -2 5 -18 2 -36z
m50 0 c-3 -20 0 -34 9 -40 11 -7 11 -9 -2 -9 -12 0 -18 11 -22 38 -4 39 -1 55
12 48 4 -3 6 -19 3 -37z m250 23 c-16 -5 -15 -59 1 -65 7 -3 5 -6 -5 -6 -15
-1 -18 7 -18 44 0 38 3 43 17 38 11 -4 12 -8 5 -11z m-520 -3 c-14 -5 -20 -13
-16 -20 4 -8 3 -9 -5 -5 -16 10 5 36 28 35 10 0 8 -3 -7 -10z m93 0 c11 -16 1
-19 -13 -3 -7 8 -8 14 -3 14 5 0 13 -5 16 -11z m253 -1 c7 -7 12 -16 12 -22 0
-5 -6 -2 -13 9 -17 22 -37 12 -37 -20 0 -17 7 -25 25 -28 23 -4 23 -4 -2 -3
-21 1 -29 7 -31 24 -3 22 13 52 27 52 4 0 12 -5 19 -12z m60 0 c-9 -7 -19 -26
-21 -43 -4 -27 -4 -27 -6 7 -1 34 7 45 33 47 6 1 2 -5 -6 -11z m50 5 c-24 -6
-23 -20 2 -33 30 -16 25 -40 -7 -39 -24 2 -25 2 -5 6 27 5 28 10 0 32 -23 19
-17 42 10 40 15 -1 15 -2 0 -6z m142 -8 c17 -20 4 -65 -18 -65 -22 0 -42 19
-42 40 0 35 38 51 60 25z m58 4 c-10 -5 -22 -17 -27 -27 -6 -9 -11 -12 -11 -5
0 15 28 43 43 43 7 0 4 -5 -5 -11z m246 5 c9 -3 16 -11 16 -16 0 -6 -6 -5 -15
2 -19 16 -35 4 -35 -26 0 -29 26 -33 47 -6 13 15 13 15 3 -6 -15 -31 -54 -26
-58 6 -2 13 2 30 8 38 14 16 13 16 34 8z m134 -7 c6 -5 11 -23 11 -40 l-2 -32
-6 35 c-4 22 -12 35 -21 35 -9 0 -17 -13 -21 -35 -6 -35 -6 -35 -8 -4 0 16 -5
34 -10 40 -12 11 38 12 57 1z m-1390 -28 c-3 -8 -7 -3 -11 10 -4 17 -3 21 5
13 5 -5 8 -16 6 -23z m48 4 c7 -25 8 -25 15 -8 5 13 8 15 8 5 0 -8 -3 -21 -8
-29 -6 -10 -11 -6 -19 15 l-10 29 -11 -29 c-6 -16 -14 -27 -16 -24 -7 6 18 68
27 68 4 0 11 -12 14 -27z m51 10 c4 -10 11 -21 17 -25 8 -5 8 -10 0 -18 -9 -9
-13 -4 -19 17 -3 15 -12 31 -18 35 -9 6 -9 8 1 8 7 0 16 -8 19 -17z m70 -6
l12 28 -6 -30 c-8 -43 -21 -52 -29 -22 -3 15 -10 24 -15 21 -11 -6 -12 10 -1
20 4 5 11 -4 16 -18 l10 -26 13 27z m43 -17 c4 0 10 10 14 23 5 18 8 20 16 7
5 -8 10 -19 10 -25 0 -5 -4 -3 -9 4 -8 12 -11 9 -16 -12 -4 -15 -11 -27 -15
-27 -9 0 -20 37 -19 60 1 8 4 5 6 -7 2 -13 8 -23 13 -23z m330 5 c0 -32 -2
-35 -30 -35 -16 0 -30 4 -30 8 0 5 10 8 23 8 17 -1 23 5 25 27 5 38 12 34 12
-8z m763 3 c-8 -46 -13 -48 -13 -5 0 21 4 37 10 37 5 0 7 -14 3 -32z m-126
-29 c11 0 13 -3 5 -6 -17 -7 -42 15 -41 36 0 11 3 9 9 -6 5 -13 17 -23 27 -24z
m-911 5 c-4 -9 -9 -15 -11 -12 -3 3 -3 13 1 22 4 9 9 15 11 12 3 -3 3 -13 -1
-22z m109 5 c0 -8 -11 -14 -28 -15 -26 -1 -26 -1 -2 3 23 4 24 7 13 20 -11 14
-11 15 2 11 8 -2 15 -11 15 -19z m641 -17 c-10 -2 -22 0 -28 6 -6 6 0 7 19 4
21 -5 23 -7 9 -10z"/>
<path d="M13107 630 c-3 -12 0 -20 8 -20 8 0 11 8 8 20 -3 11 -7 20 -8 20 -1
0 -5 -9 -8 -20z"/>
<path d="M13440 621 c0 -43 9 -55 34 -45 11 4 16 19 16 45 0 35 -3 39 -25 39
-22 0 -25 -4 -25 -39z"/>
<path d="M13880 655 c-25 -30 10 -61 38 -33 7 7 8 17 1 30 -12 22 -23 23 -39
3z"/>
<path d="M14257 630 c-18 -29 -18 -30 2 -30 17 0 21 6 21 30 0 17 -1 30 -3 30
-1 0 -11 -13 -20 -30z"/>
<path d="M14346 625 c-16 -24 -16 -25 4 -25 15 0 20 7 20 25 0 14 -2 25 -4 25
-2 0 -11 -11 -20 -25z"/>
<path d="M1792 518 c-7 -7 -12 -22 -12 -35 0 -21 4 -23 50 -23 46 0 50 2 50
23 0 30 -18 47 -50 47 -14 0 -31 -5 -38 -12z"/>
<path d="M3461 564 c0 -11 3 -14 6 -6 3 7 2 16 -1 19 -3 4 -6 -2 -5 -13z"/>
<path d="M13994 376 c-9 -24 4 -48 23 -44 12 2 18 12 18 28 0 29 -32 41 -41
16z"/>
</g>
</svg>
