<?xml version="1.0" standalone="no"?>
<!DOCTYPE svg PUBLIC "-//W3C//DTD SVG 20010904//EN"
 "http://www.w3.org/TR/2001/REC-SVG-20010904/DTD/svg10.dtd">
<svg version="1.0" xmlns="http://www.w3.org/2000/svg"
 width="512.000000pt" height="512.000000pt" viewBox="0 0 512.000000 512.000000"
 preserveAspectRatio="xMidYMid meet">

<g transform="translate(0.000000,512.000000) scale(0.100000,-0.100000)"
fill="#000000" stroke="none">
<path d="M1225 4395 c-23 -22 -25 -32 -25 -107 0 -77 10 -215 26 -380 l7 -68
-204 0 c-225 0 -242 -4 -254 -60 -9 -43 13 -211 41 -310 105 -365 414 -689
839 -878 90 -40 110 -54 200 -141 100 -97 169 -150 277 -211 l58 -32 -6 -71
c-9 -114 -50 -304 -89 -418 -42 -119 -128 -298 -183 -379 l-37 -55 -65 -5
c-75 -6 -115 -27 -150 -78 -23 -33 -25 -45 -28 -186 -4 -181 0 -206 41 -253
58 -66 16 -63 887 -63 871 0 829 -3 887 63 41 47 45 72 41 253 -3 141 -5 153
-28 187 -36 52 -86 77 -154 77 l-56 0 -44 68 c-144 223 -241 510 -271 799 l-6
62 43 22 c90 46 197 126 293 220 91 89 109 101 202 142 417 183 730 512 837
879 28 96 50 272 40 312 -13 52 -31 56 -253 56 l-204 0 7 68 c16 165 26 303
26 380 0 75 -2 85 -25 107 l-24 25 -1311 0 -1311 0 -24 -25z m2531 -232 c-30
-445 -118 -803 -276 -1128 -182 -373 -426 -620 -705 -712 -69 -23 -97 -27
-210 -27 -117 -1 -139 2 -217 28 -283 92 -524 335 -708 711 -158 325 -246 683
-276 1128 l-6 97 1202 0 1202 0 -6 -97z m-2490 -510 c61 -276 143 -517 239
-710 34 -68 58 -123 54 -123 -4 0 -49 27 -99 61 -106 71 -249 204 -321 298
-69 91 -154 267 -179 371 -33 142 -46 130 140 130 l160 0 6 -27z m2914 5 c0
-59 -45 -202 -95 -303 -66 -134 -127 -216 -244 -328 -78 -74 -258 -207 -280
-207 -4 0 20 55 54 123 96 193 178 434 239 710 l6 27 160 0 c159 0 160 0 160
-22z m-1620 -1523 c58 0 130 4 161 8 l56 9 6 -77 c16 -190 89 -432 195 -645
37 -74 69 -138 70 -142 2 -5 -217 -8 -487 -8 -270 0 -491 2 -491 4 0 3 16 32
36 66 114 195 214 508 231 721 l6 81 56 -9 c31 -4 103 -8 161 -8z m770 -1145
l0 -130 -770 0 -770 0 0 130 0 130 770 0 770 0 0 -130z"/>
</g>
</svg>
